# xmcd
#
# Track frame offsets:
#	150
#	22704
#	36904
#	48118
#	62562
#	73043
#	84817
#	98434
#	133748
#	148659
#	161133
#	172649
#	185589
#	197808
#	208500
#	230489
#	244908
#
# Disc length: 3561
#
# Revision: 3
# Processed by: cddbd v1.5.1PL0 Copyright (c) Steve Scherf et al.
# Submitted via: CDex 1.50beta10
# Normalized: r1:TDELIM( - ),TSWAP
#
DISCID=dc0de711
DTITLE=Bluesland - Masters of Jazz
DYEAR=2002
DGENRE=Jazz
TTITLE0=BB King - The thrill is gone (live)
TTITLE1=Billie Holliday - Strange fruit
TTITLE2=John Lee Hooker - Boom Boom
TTITLE3=Bessie Smith - St Louis blues
TTITLE4=Otis Rush - Sit down baby
TTITLE5=Howlin' Wolf - Baby ride with me
TTITLE6=Blind Lemon Jefferson - Match box blues
TTITLE7=Muddy Waters - Kansas City (live)
TTITLE8=MA Rainey - C C rider
TTITLE9=Elmore James - The sky is crying
TTITLE10=Blind Willie McTell - Statesboro' blues
TTITLE11=Dinah Washington - Evil gal blues
TTITLE12=John Lee Hooker - I'm in the mood
TTITLE13=Jimmy Reed - Baby what do you want me to do
TTITLE14=Nina Simone - Gin house blues (live)
TTITLE15=T-Bone Walker - Born to be no good
TTITLE16=John Mayall's Bluesbreakers - All your love
EXTD=YEAR: 2002
EXTT0=
EXTT1=
EXTT2=
EXTT3=
EXTT4=
EXTT5=
EXTT6=
EXTT7=
EXTT8=
EXTT9=
EXTT10=
EXTT11=
EXTT12=
EXTT13=
EXTT14=
EXTT15=
EXTT16=
PLAYORDER=
